# xmcd
#
# Track frame offsets:
#	150
#	4724
#	19335
#	29265
#	42961
#	65801
#	85741
#	97241
#	106235
#	121526
#	126131
#	142766
#	153803
#	168402
#	180850
#	193662
#	212972
#	225709
#	236678
#	250076
#	265273
#	275945
#	289868
#	300732
#
# Disc length: 4116 seconds
#
# Revision: 1
# Processed by: cddbd v1.5.2PL0 Copyright (c) Steve Scherf et al.
# Submitted via: audiograbber 1.83.01
#
DISCID=4c101218
DTITLE=Lee Hazlewood - LEE HAZLEWOOD - The Complete Reprise Recordings (1965-19
DTITLE=68) Part Two
DYEAR=1900
DGENRE=Country
TTITLE0=Lee Hazlewood - Love and other crimes
TTITLE1=Lee Hazlewood - Morning dew
TTITLE2=Lee Hazlewood - She comes running
TTITLE3=Lee Hazlewood - Rosacoke street
TTITLE4=Lee Hazlewood - She's funny that way
TTITLE5=Lee Hazlewood - The house song
TTITLE6=Lee Hazlewood - Wait and see
TTITLE7=Lee Hazlewood - Forget Marie
TTITLE8=Lee Hazlewood - Pour man'
TTITLE9=Lee Hazlewood - Love and other crimes
TTITLE10=Lee Hazlewood - Ode to Billie Joe
TTITLE11=Lee Hazlewood - Charlie Bill Nelson
TTITLE12=Lee Hazlewood - Rainbow woman
TTITLE13=Lee Hazlewood - I am, you are
TTITLE14=Lee Hazlewood and Nancy Sinatra - Greenwich village folk song salesman
TTITLE15=Lee Hazlewood and Nancy Sinatra - Summerwine
TTITLE16=Lee Hazlewood and Nancy Sinatra - Jackson
TTITLE17=Lee Hazlewood and Suzi Jane Hokom - The girls in Paris
TTITLE18=Lee Hazlewood and Nancy Sinatra - Paris summer
TTITLE19=Lee Hazlewood - Poet, fool or bum
TTITLE20=Lee Hazlewood - Kari
TTITLE21=Lee Hazlewood and Suzi Jane Hokom - Summerwine
TTITLE22=Lee Hazlewood - Gambler's guitar
TTITLE23=Winny Lee - Mule train
EXTD=
EXTT0=
EXTT1=
EXTT2=
EXTT3=
EXTT4=
EXTT5=
EXTT6=
EXTT7=
EXTT8=
EXTT9=
EXTT10=
EXTT11=
EXTT12=
EXTT13=
EXTT14=
EXTT15=
EXTT16=
EXTT17=
EXTT18=
EXTT19=
EXTT20=
EXTT21=
EXTT22=
EXTT23=
PLAYORDER=
